<svg version="1.1" id="Layer_1" xmlns="http://www.w3.org/2000/svg" xmlns:xlink="http://www.w3.org/1999/xlink" x="0px" y="0px"
	 viewBox="0 0 96 96" style="enable-background:new 0 0 96 96;" xml:space="preserve">
<path d="M40,12c-2.5,0-4.9,1.2-6.5,3.3L10,42.7c-2.7,3-2.7,7.6,0,10.6l23.5,27.4c2.6,3.6,7.6,4.3,11.2,1.7c2.1-1.5,3.3-3.9,3.3-6.4
	V20C48,15.6,44.4,12,40,12z"/>
<path d="M80,12c-2.5,0-4.9,1.2-6.4,3.3L50,42.7c-2.7,3-2.7,7.6,0,10.6l23.6,27.4c2.6,3.6,7.6,4.3,11.2,1.7c2.1-1.5,3.3-3.9,3.3-6.4
	V20C88,15.6,84.4,12,80,12z"/>
</svg>
