<svg version="1.1" id="Layer_1" xmlns="http://www.w3.org/2000/svg" xmlns:xlink="http://www.w3.org/1999/xlink" x="0px" y="0px"
	 viewBox="0 0 24 24" style="enable-background:new 0 0 24 24;" xml:space="preserve">
<g>
	<path d="M10.9,13.6C11,13.7,11,13.9,11,14v5c0,0.6-0.4,1-1,1s-1-0.4-1-1v-2.6l-5.3,5.3c-0.4,0.4-1,0.4-1.4,0c0,0,0,0,0,0
		c-0.4-0.4-0.4-1,0-1.4c0,0,0,0,0,0L7.6,15H5c-0.6,0-1-0.4-1-1s0.4-1,1-1h5c0.1,0,0.3,0,0.4,0.1C10.6,13.2,10.8,13.4,10.9,13.6z
		 M21.7,2.3c-0.4-0.4-1-0.4-1.4,0c0,0,0,0,0,0L15,7.6V5c0-0.6-0.4-1-1-1s-1,0.4-1,1v5c0,0.1,0,0.3,0.1,0.4c0.1,0.2,0.3,0.4,0.5,0.5
		C13.7,11,13.9,11,14,11h5c0.6,0,1-0.4,1-1s-0.4-1-1-1h-2.6l5.3-5.3C22.1,3.3,22.1,2.7,21.7,2.3C21.7,2.3,21.7,2.3,21.7,2.3z"/>
</g>
</svg>
