<svg version="1.1" id="Layer_1" xmlns="http://www.w3.org/2000/svg" xmlns:xlink="http://www.w3.org/1999/xlink" x="0px" y="0px"
	 viewBox="0 0 100 100" style="enable-background:new 0 0 100 100;" xml:space="preserve">
<path d="M49.8,14.6V6c0-2.9-2.3-5.2-5.2-5.2c-1.4,0-2.7,0.6-3.7,1.5L27.1,16.2c-2,2-2,5.3,0,7.4l13.9,13.8c2,2,5.3,2,7.4,0
	c1-1,1.5-2.3,1.5-3.7v-8.6c17.5,0,31.7,14.2,31.7,31.7c0,17.5-14.2,31.7-31.7,31.7c-15.7,0-29.1-11.6-31.4-27.1
	c-0.3-2.6-2.5-4.6-5.2-4.6h-0.1c-2.9,0-5.2,2.3-5.2,5.2c0,0.3,0,0.5,0.1,0.8c3.3,23.1,24.8,39.2,47.9,35.9
	C78.9,95.5,95,74,91.7,50.9C88.7,30.1,70.9,14.6,49.8,14.6z"/>
</svg>
