<svg version="1.1" id="Layer_1" xmlns="http://www.w3.org/2000/svg" xmlns:xlink="http://www.w3.org/1999/xlink" x="0px" y="0px"
	 viewBox="0 0 32 32" style="enable-background:new 0 0 32 32;" xml:space="preserve">
<g>
	<path d="M30,12c0,0.3-0.1,0.6-0.3,0.7l-10,9c-0.3,0.3-0.7,0.3-1.1,0.2C18.2,21.7,18,21.4,18,21v-3.8c-6.4,1.3-11.7,6-13.8,12.1
		C4.1,29.7,3.7,30,3.2,30H3.2c-0.5,0-0.8-0.4-0.9-0.8c-0.2-1-0.3-2.1-0.3-3.1C2,16.7,8.8,8.8,18,7.3V3c0-0.4,0.2-0.7,0.6-0.9
		C19,1.9,19.4,2,19.7,2.3l10,9C29.9,11.4,30,11.7,30,12z"/>
</g>
</svg>
