<svg version="1.1" id="Layer_1" xmlns="http://www.w3.org/2000/svg" xmlns:xlink="http://www.w3.org/1999/xlink" x="0px" y="0px"
	 viewBox="0 0 32 32" style="enable-background:new 0 0 32 32;" xml:space="preserve">
<g>
	<g>
		<path style="fill: rgb(226, 83, 79)" d="M16,29C8.8,29,3,23.2,3,16S8.8,3,16,3s13,5.8,13,13S23.2,29,16,29z M16,5C9.9,5,5,9.9,5,16s4.9,11,11,11s11-4.9,11-11
			S22.1,5,16,5z"/>
	</g>
	<g>
		<g>
			<path style="fill: rgb(226, 83, 79)" d="M13.2,19.8c-0.3,0-0.5-0.1-0.7-0.3c-0.4-0.4-0.4-1,0-1.4l5.5-5.5c0.4-0.4,1-0.4,1.4,0s0.4,1,0,1.4L14,19.5
				C13.8,19.7,13.5,19.8,13.2,19.8z"/>
		</g>
		<g>
			<path style="fill: rgb(226, 83, 79)" d="M18.8,19.8c-0.3,0-0.5-0.1-0.7-0.3L12.5,14c-0.4-0.4-0.4-1,0-1.4s1-0.4,1.4,0l5.5,5.5c0.4,0.4,0.4,1,0,1.4
				C19.3,19.7,19,19.8,18.8,19.8z"/>
		</g>
	</g>
</g>
</svg>
