<svg version="1.1" id="Layer_1" xmlns="http://www.w3.org/2000/svg" xmlns:xlink="http://www.w3.org/1999/xlink" x="0px" y="0px"
	 viewBox="0 0 54 54" style="enable-background:new 0 0 54 54;" xml:space="preserve">
<path d="M2.7,51.3c-0.5-0.5-0.8-1.3-0.7-2l1.3-14C3.4,33.9,4.7,32.9,6,33c1.4,0.1,2.4,1.3,2.3,2.7l-0.7,7.1L20,30.4c1-1,2.6-1,3.5,0
	c1,1,1,2.6,0,3.5L11.2,46.4l7.1-0.7c1.4-0.1,2.6,0.9,2.7,2.3c0.1,1.4-0.9,2.6-2.3,2.7L4.7,52c-0.1,0-0.2,0-0.2,0
	C3.8,52,3.2,51.7,2.7,51.3z M49.3,2l-14,1.3C33.9,3.4,32.9,4.6,33,6c0.1,1.4,1.4,2.4,2.7,2.3l7.1-0.7L30.4,20.1c-1,1-1,2.6,0,3.5
	c0.5,0.5,1.1,0.7,1.8,0.7s1.3-0.2,1.8-0.7l12.4-12.4l-0.7,7.1c-0.1,1.4,0.9,2.6,2.3,2.7c0.1,0,0.2,0,0.2,0c1.3,0,2.4-1,2.5-2.3
	l1.3-14c0.1-0.7-0.2-1.5-0.7-2C50.7,2.2,50,1.9,49.3,2z"/>
</svg>
